<?xml version="1.0" encoding="utf-8"?>
<!-- Generator: Adobe Illustrator 25.4.1, SVG Export Plug-In . SVG Version: 6.00 Build 0)  -->
<svg version="1.1" id="Layer_1" xmlns="http://www.w3.org/2000/svg" xmlns:xlink="http://www.w3.org/1999/xlink" x="0px" y="0px"
	 viewBox="0 0 1041.3 554.1" style="enable-background:new 0 0 1041.3 554.1;" xml:space="preserve">
<style type="text/css">
	.st0{fill:#F2F2F2;}
	.st1{opacity:0.1;enable-background:new    ;}
	.st2{fill:#65617D;}
	.st3{opacity:0.2;enable-background:new    ;}
	.st4{fill:#3F3D56;}
	.st5{fill:#39374D;}
	.st6{fill:#4267B2;}
	.st7{fill:#FBBEBE;}
	.st8{fill:#FF6584;}
	.st9{fill:url(#SVGID_1_);}
	.st10{fill:#6EC6D3;}
	.st11{fill:#D91E34;}
	.st12{fill:#00927F;}
	.st13{fill:#B3C635;}
</style>
<g id="Group_24" transform="translate(-440 -263)">
	<g id="Group_23" transform="translate(439.989 262.965)">
		<path id="Path_299" class="st0" d="M961.5,438.2c-1.2,2.5-2.3,5-3.5,7.4c-1.8,3.8-3.6,7.5-5.3,11.1c-0.8,1.6-1.6,3.2-2.3,4.8
			c-8.6,17.6-16.6,33.1-23.5,45.9c-12.6,23.6-37.1,38.4-63.8,38.7l-151.6,1.7h-1.6l-13,0.1l-11.1,0.1l-34.1,0.4h-1.4l-17.4,0.2h-0.5
			l-107,1.2l-95.5,1l-11.1,0.1l-69,0.8h-0.1l-44.8,0.5h-0.5l-141.5,1.5l-42.3,0.5c-3.6,0-7.2-0.1-10.8-0.5l0,0
			c-1.2-0.1-2.4-0.3-3.6-0.5c-19.7-3-37.8-12.8-51.3-27.5c-18.2-20-31.5-43.4-40.4-68.8c-1.3-3.7-2.5-7.4-3.6-11.1
			c-30.8-104.2,6.8-238.5,74.4-328.4c2.8-3.8,5.7-7.4,8.6-11l0.1-0.1c20.8-25.5,44.1-46.8,68.9-62c44-26.9,92.8-34.5,140.7-11.9
			c40.6,19.1,78.5,28.1,115.2,30.6c3.7,0.2,7.4,0.4,11.1,0.5C514.1,65.9,593,35.6,685.7,16c3.7-0.8,7.4-1.6,11.1-2.3
			C763,0.5,836.4-6.4,923.6,8.2c9.1,1.5,18,3.6,26.8,6.4c3.8,1.2,7.6,2.6,11.1,4c41.6,16.9,64.4,48.2,74,87.5
			c0.9,3.6,1.7,7.3,2.4,11.1C1055,211.5,1004.8,345.3,961.5,438.2z"/>
		<path id="Path_300" class="st1" d="M497,445.6c-0.4,3.7-1,7.5-1.9,11.1h93.7v-11.1H497z M418.8,508.4l11.1-0.1v-27.5
			c-3.8-0.2-7.5-0.3-11.1-0.5V508.4z M185.9,445.6v11.1h198.5v-11.1H185.9z M1035.5,106.1h-74V18.6c-3.6-1.4-7.3-2.8-11.1-4v91.5
			H696.9V13.7c-3.7,0.7-7.4,1.5-11.1,2.3v90.1H429.9V63.2c-3.7-0.1-7.4-0.3-11.1-0.5v43.4H162.9v-62c-24.8,15.2-48.1,36.5-68.9,62
			h-0.1v0.1c-2.9,3.6-5.8,7.3-8.6,11h8.6v328.4h-83c1.1,3.8,2.3,7.5,3.6,11.1h79.4v93.6c4,1.2,8.1,2.2,12.2,2.8
			c1.2,0.2,2.4,0.3,3.6,0.5l0,0c3.6,0.4,7.2,0.6,10.8,0.5l42.3-0.5v-97h255.9v94.2l11.1-0.1v-94.1h255.9v91.4l11.1-0.1v-91.2h253.5
			v4.8c0.8-1.6,1.5-3.2,2.3-4.8c1.8-3.6,3.5-7.3,5.3-11.1c1.2-2.4,2.3-4.9,3.5-7.4v-321h76.4
			C1037.2,113.4,1036.4,109.7,1035.5,106.1z M162.9,445.6V117.2h255.9v328.4H162.9z M429.9,445.6V117.2h255.9v328.4H429.9z
			 M950.4,445.6H696.9V117.2h253.5L950.4,445.6z"/>
		<path id="Path_301" class="st2" d="M863.1,533.7v13l-151.9,1.4l-1.6,0l-57.7,0.5l-1.4,0l-17.5,0.2h-0.5l-107,1l-175.6,1.6h-0.1
			l-44.6,0.4l-0.5,0l-198.4,1.8v-15l46.6-28l93.6-0.8l2,0l0.7,0l2,0l44.9-0.4l2,0l0.6,0l2,0l14.4-0.1l0.4,0l35.5-0.3h0.3l277.4-2.3
			l6.8,0h0.7l5.2,0l37.7-0.3l2,0l1.8,0h1l11.7-0.1l2.3,0l3.1,0l9.8-0.1l15.5-0.1l2,0l3.5,0h0.7l74.7-0.6L863.1,533.7z"/>
		<path id="Path_302" class="st3" d="M863.1,533.7v13l-151.9,1.4l-1.6,0l-57.7,0.5l-1.4,0l-17.5,0.2h-0.5l-107,1l-175.6,1.6h-0.1
			l-44.6,0.4l-0.5,0l-198.4,1.8v-15l46.6-28l93.6-0.8l2,0l0.7,0l2,0l44.9-0.4l2,0l0.6,0l2,0l14.4-0.1l0.4,0l35.5-0.3h0.3l277.4-2.3
			l6.8,0h0.7l5.2,0l37.7-0.3l2,0l1.8,0h1l11.7-0.1l2.3,0l3.1,0l9.8-0.1l15.5-0.1l2,0l3.5,0h0.7l74.7-0.6L863.1,533.7z"/>
		<path id="Path_303" class="st4" d="M296.1,483.7v24.5c0,2.4-1.4,4.5-3.5,5.5c-0.8,0.4-1.6,0.6-2.5,0.6l-34.9,0.7
			c-0.9,0-1.9-0.2-2.7-0.6c-2.2-1-3.6-3.2-3.6-5.6v-25.2H296.1z"/>
		<path id="Path_304" class="st1" d="M296.1,483.7v24.5c0,2.4-1.4,4.5-3.5,5.5c-0.8,0.4-1.6,0.6-2.5,0.6l-34.9,0.7
			c-0.9,0-1.9-0.2-2.7-0.6c-2.2-1-3.6-3.2-3.6-5.6v-25.2H296.1z"/>
		<path id="Path_305" class="st4" d="M298.1,483.7v24.5c0,2.4-1.4,4.5-3.5,5.5c-0.8,0.4-1.6,0.6-2.5,0.6l-34.9,0.7
			c-0.9,0-1.9-0.2-2.7-0.6c-2.2-1-3.6-3.2-3.6-5.6v-25.2H298.1z"/>
		<rect id="Rectangle_137" x="680.9" y="483.6" class="st4" width="47.2" height="31.5"/>
		<rect id="Rectangle_138" x="680.9" y="483.6" class="st1" width="47.2" height="31.5"/>
		<rect id="Rectangle_139" x="678.9" y="483.6" class="st4" width="47.2" height="31.5"/>
		<path id="Path_306" class="st1" d="M298.1,483.6v5l-47.2,1.3v-6.2H298.1z"/>
		<path id="Path_307" class="st2" d="M381.4,312.4v168.2c0,2.1-1.7,3.9-3.9,4l-191.6,5.1h0c-2.2,0-3.9-1.8-4-4V312.4
			c0-2.2,1.8-3.9,4-4h191.6C379.6,308.4,381.3,310.2,381.4,312.4L381.4,312.4z"/>
		<path id="Path_308" class="st1" d="M185.9,308.4v181.2h0c-2.2,0-3.9-1.8-4-4V312.4C181.9,310.2,183.6,308.4,185.9,308.4
			L185.9,308.4z"/>
		<path id="Path_309" class="st5" d="M194.6,319.1h177.5v148.2l-177.5,4V319.1z"/>
		<path id="Path_310" class="st1" d="M726.1,483.6v6.4l-47.2-1.3v-5.1H726.1z"/>
		<path id="Path_311" class="st2" d="M788.3,312.4v173.3c0,2.2-1.8,4-4,4l0,0l-191.7-5.1c-2.1-0.1-3.8-1.8-3.8-4V312.4
			c0-2.2,1.8-3.9,4-4h191.6C786.5,308.4,788.3,310.2,788.3,312.4z"/>
		<path id="Path_312" class="st1" d="M788.3,312.4v173.3c0,2.2-1.8,4-4,4l0,0V308.4l0,0C786.5,308.4,788.3,310.2,788.3,312.4
			L788.3,312.4z"/>
		<path id="Path_313" class="st5" d="M775.6,319.1H598.1v148.2l177.5,4V319.1z"/>
		<path id="Path_314" class="st2" d="M583.8,312.4v168.2c0,2.1-1.7,3.9-3.8,4l-191.6,5.1l0,0c-2.2,0-4-1.8-4-4V312.4
			c0-2.2,1.8-3.9,4-4h191.6C582.1,308.4,583.8,310.2,583.8,312.4z"/>
		<path id="Path_315" class="st6" d="M397.1,319.1h177.5v148.2l-177.5,4L397.1,319.1z"/>
		<path id="Path_316" class="st1" d="M863.1,533.7v13l-151.9,1.4l-1.6,0l-57.7,0.5l-1.4,0l-17.5,0.2h-0.5l-107,1l-175.6,1.6h-0.1
			l-44.6,0.4l-0.5,0l-198.4,1.8v-15l202.5-1.3h0.5l41-0.3h0.2l283.1-1.9h0.3l0.2,0h0.5l4.8,0h1.5l74.5-0.5l4.4,0l1,0L863.1,533.7z"
			/>
		<circle id="Ellipse_111" class="st7" cx="487.3" cy="298.2" r="51.3"/>
		<path id="Path_317" class="st7" d="M538.6,377.2c0,0-99.5,12-90,0c3.4-4.3,4.4-17.2,4.2-31.8c-0.1-4.5-0.2-9.1-0.5-13.6
			c-1.1-22-3.8-43.5-3.8-43.5s87-41,77-8.5c-4,13.1-2.7,31.6,0.3,48.9c0.9,5,1.9,10,3,14.7C531.6,354.7,534.8,366,538.6,377.2z"/>
		<path id="Path_318" class="st8" d="M506.1,373.1c11.5-2.1,23.7-6,34.5-1.5c2.8,1.2,5.5,2.9,8.4,3.9s6.1,1.2,9.2,1.9
			c10.7,2.4,19.3,10.5,24.9,20s8.4,20.1,11.3,30.7l6.9,25.8c6,22.5,12,45.1,13.4,68.3c-83.5,4.8-167.3,5.3-250.8,1.4
			c5.4-10.3,11-21.3,10.5-33s-7.2-23.2-4.8-34.7c1.5-7.3,6.6-13.4,9.6-20.2c8.8-19.5,1.9-45.8,17.3-60.7c6.9-6.7,17-9.2,26.6-8.9
			c12.3,0.4,24.8,4.2,37,6.1C475.8,374.6,490.4,376,506.1,373.1z"/>
		<path id="Path_319" class="st1" d="M637,484.3l-0.1,1.4v0.1l-0.2,2.3l-1.3,18.5l-1.6,22.3l-0.5,6.3l-1,13.4v0.2l-107,1l-175.6,1.9
			v0.8h-0.1v-1.1l0.5-14.4l0.9-28.1l0.7-23.8l0.1-2.4c0.2-5.8,5-10.4,10.8-10.2c0.2,0,0.4,0,0.6,0c4.7,0.4,10.9,0.9,18.2,1.4l3,0.2
			c42.3,2.9,120.6,6.7,199.5,2c1.7-0.1,3.3-0.2,5-0.3c12.2-0.8,24.5-1.8,36.6-3c5.8-0.6,11,3.6,11.6,9.4
			C637.1,483,637.1,483.6,637,484.3L637,484.3z"/>
		<path id="Path_320" class="st4" d="M349.7,552.5v-0.8l175.6-1.9l107-1h0.3v-0.2l1-13.4l0.4-6l1.6-22.6l1.3-17.9v-0.4
			c0.1-0.8,0-1.7-0.1-2.5c0,0,0-0.1,0-0.1c-0.3-1.7-1-3.3-2-4.6c-2.2-2.9-5.8-4.4-9.4-4c-12.1,1.2-24.3,2.2-36.6,3
			c-1.7,0.1-3.3,0.2-5,0.3c-78.9,4.7-157.2,0.9-199.5-2l-3-0.2c-7.3-0.5-13.5-1-18.2-1.4c-5.4-0.5-10.2,3.2-11.2,8.5
			c-0.1,0.5-0.2,1.1-0.2,1.6l-0.7,22.2l-0.9,28.1l-0.4,14.4L349.7,552.5L349.7,552.5z"/>
		<path id="Path_321" class="st1" d="M637.3,491.3l-1.2,15.3l-1.8,22.9l-0.5,5.7l-1,12.8l-0.1,0.6v0.2l0,0l-0.2,1.5l0.1-1.5h-0.3
			l-107,1l-175.6,1.9v-0.3l0.5-14.4l1-28.1l0.6-18.7c0.1-2.2,1.2-4.1,3.1-5.2c1.1-0.7,2.5-1,3.8-0.9c2.1,0.2,4.7,0.4,7.7,0.6
			c4.9,0.4,10.9,0.8,17.9,1.2c13,0.8,29.3,1.7,48,2.4c52,2,122.2,2.7,188.9-3.2c3-0.3,6.1-0.5,9.1-0.8c1.2-0.1,2.4,0.1,3.5,0.7
			c0.3,0.2,0.6,0.3,0.9,0.5c0.9,0.6,1.6,1.5,2,2.5c0.1,0.2,0.2,0.4,0.2,0.6C637.3,489.5,637.4,490.4,637.3,491.3z"/>
		<path id="Path_322" class="st1" d="M298.1,505v3.2c0,2.4-1.4,4.5-3.5,5.5l-40.1,0.8c-2.2-1-3.6-3.2-3.6-5.6v-3L298.1,505z"/>
		<path id="Path_323" class="st4" d="M298.6,515.6l-52.2,1v-8.7l52.2-1V515.6z"/>
		<path id="Path_324" class="st1" d="M298.6,515.6l-52.2,1v-8.7l52.2-1V515.6z"/>
		<path id="Path_325" class="st4" d="M300.6,515.6l-52.2,1v-8.7l52.2-1V515.6z"/>
		<path id="Path_326" class="st1" d="M679.2,507v3.2c0,2.4,1.4,4.5,3.5,5.5l40.1,0.8c2.2-1,3.6-3.2,3.6-5.6v-3L679.2,507z"/>
		<path id="Path_327" class="st1" d="M678.7,517.6l52.2,1v-8.7l-52.2-1V517.6z"/>
		<path id="Path_328" class="st4" d="M676.7,517.6l52.2,1v-8.7l-52.2-1V517.6z"/>
		<path id="Path_329" class="st4" d="M454.8,313.9c0.1,7-3.2,13.6-5.9,20.1c-10,23.6-14.3,49.2-12.7,74.7c0.7,11,2.6,22,0.7,32.9
			s-8.4,21.8-19,24.9c17.5,10.5,41.3,9.3,57.8-2.7c8.8-6.4,15.3-15.3,21.8-24.1c-0.8,15.8-5.3,31.1-13.3,44.8
			c29.2-2.6,55.9-17.4,73.5-40.8c4.3-5.8,8.1-12.2,9.7-19.2c3.1-13-1.2-26.5-4.5-39.5c-2.7-10.9-4.8-21.9-6.2-33
			c-0.4-3.6-0.8-7.2,0.1-10.7c1-4.1,3.7-7.5,5.6-11.2c5.6-10.5,5.7-23.3,2.9-34.9s-8.5-22.3-14.1-32.8c-4.5-8.5-9.3-17.3-17.5-22.3
			c-5.1-3.1-11-4.4-16.9-5.6l-25.4-5.4c-5.5-1.2-11.3-2.4-16.9-1.5c-9.5,1.5-16.1,8.3-22,15.3c-4.6,5.5-15.8,15.7-16.6,22.9
			c-0.7,6.6,5.1,17.6,6.1,24.6c1.3,9,2.2,6,7.3,11.5C452.7,305.1,454.7,309.1,454.8,313.9z"/>
	</g>
	
		<linearGradient id="SVGID_1_" gradientUnits="userSpaceOnUse" x1="723.329" y1="356.4083" x2="723.329" y2="441.3044" gradientTransform="matrix(1 0 0 -1 0 1082)">
		<stop  offset="0" style="stop-color:#FFF100"/>
		<stop  offset="1" style="stop-color:#F05A28"/>
	</linearGradient>
	<path class="st9" d="M765.9,652.8c-0.1-1.6-0.4-3.4-0.9-5.3c-0.5-2-1.3-4.2-2.4-6.4c-1.1-2.2-2.6-4.6-4.5-6.8
		c-0.7-0.9-1.5-1.8-2.4-2.6c1.3-5.2-1.6-9.7-1.6-9.7c-5-0.3-8.2,1.5-9.4,2.4c-0.2-0.1-0.4-0.2-0.6-0.2c-0.8-0.4-1.7-0.7-2.6-1
		c-0.9-0.3-1.8-0.5-2.8-0.8c-0.9-0.2-1.9-0.4-2.9-0.6c-0.2,0-0.3,0-0.5-0.1c-2.2-7-8.5-9.9-8.5-9.9c-7,4.4-8.3,10.6-8.3,10.6
		s0,0.1-0.1,0.4c-0.4,0.1-0.8,0.2-1.2,0.3c-0.5,0.2-1.1,0.4-1.6,0.5c-0.5,0.2-1.1,0.4-1.6,0.6c-1.1,0.5-2.1,1-3.1,1.5
		c-1,0.6-2,1.2-2.9,1.8c-0.1-0.1-0.2-0.1-0.2-0.1c-9.7-3.7-18.3,0.8-18.3,0.8c-0.8,10.3,3.9,16.8,4.8,17.9c-0.2,0.6-0.4,1.3-0.6,1.9
		c-0.7,2.3-1.2,4.7-1.6,7.2c0,0.3-0.1,0.7-0.1,1.1c-8.9,4.4-11.6,13.5-11.6,13.5c7.5,8.6,16.1,9.1,16.1,9.1c0,0,0,0,0,0
		c1.1,2,2.4,3.8,3.8,5.6c0.6,0.7,1.2,1.4,1.9,2.1c-2.7,7.8,0.4,14.2,0.4,14.2c8.3,0.3,13.8-3.6,14.9-4.5c0.8,0.3,1.7,0.5,2.5,0.8
		c2.5,0.7,5.2,1,7.8,1.2c0.7,0,1.3,0,2,0h0.3l0.2,0l0.4,0l0.4,0l0,0c3.9,5.6,10.8,6.4,10.8,6.4c4.9-5.2,5.2-10.3,5.2-11.4l0,0
		c0,0,0,0,0-0.1c0-0.1,0-0.2,0-0.2l0,0c0-0.1,0-0.1,0-0.2c1-0.7,2-1.5,2.9-2.3c2-1.8,3.7-3.8,5.1-6c0.1-0.2,0.3-0.4,0.4-0.6
		c5.5,0.3,9.4-3.4,9.4-3.4c-0.9-5.8-4.2-8.6-4.9-9.1l0,0c0,0,0,0-0.1,0c0,0-0.1,0-0.1,0l0,0c0,0-0.1,0-0.1-0.1c0-0.3,0.1-0.7,0.1-1
		c0-0.6,0.1-1.2,0.1-1.9v-0.5v-0.2v-0.1c0-0.2,0-0.1,0-0.2l0-0.4l0-0.5c0-0.2,0-0.3,0-0.5c0-0.2,0-0.3,0-0.5l-0.1-0.5l-0.1-0.5
		c-0.1-0.6-0.2-1.3-0.4-1.9c-0.6-2.5-1.6-4.8-2.8-7c-1.3-2.1-2.9-4-4.7-5.6c-1.8-1.6-3.8-2.9-5.9-3.8c-2.1-1-4.3-1.6-6.5-1.8
		c-1.1-0.1-2.2-0.2-3.3-0.2l-0.4,0h-0.1c0,0-0.2,0-0.1,0l-0.2,0l-0.4,0c-0.1,0-0.3,0-0.4,0c-0.6,0-1.1,0.1-1.7,0.2
		c-2.2,0.4-4.3,1.2-6.1,2.3c-1.8,1.1-3.4,2.5-4.7,4c-1.3,1.6-2.3,3.3-3,5c-0.7,1.8-1.1,3.6-1.2,5.4c0,0.4,0,0.9,0,1.3
		c0,0.1,0,0.2,0,0.3l0,0.4c0,0.2,0,0.4,0.1,0.6c0.1,0.9,0.2,1.8,0.5,2.6c0.5,1.7,1.2,3.2,2.2,4.5c1,1.3,2.1,2.3,3.3,3.2
		c1.2,0.8,2.5,1.4,3.8,1.8c1.3,0.4,2.5,0.5,3.8,0.5c0.2,0,0.3,0,0.5,0c0.1,0,0.2,0,0.2,0s0.2,0,0.2,0c0.1,0,0.2,0,0.4,0
		c0,0,0.1,0,0.1,0l0.1,0c0.1,0,0.1,0,0.2,0c0.2,0,0.3-0.1,0.4-0.1c0.1,0,0.3,0,0.4-0.1c0.3-0.1,0.5-0.1,0.8-0.2
		c0.5-0.2,1-0.4,1.5-0.6c0.5-0.2,0.9-0.5,1.3-0.8c0.1-0.1,0.2-0.2,0.3-0.2c0.4-0.3,0.5-0.9,0.2-1.3c-0.3-0.4-0.8-0.5-1.2-0.2
		c-0.1,0.1-0.2,0.1-0.3,0.2c-0.4,0.2-0.7,0.3-1.1,0.5c-0.4,0.1-0.8,0.2-1.2,0.3c-0.2,0-0.4,0.1-0.6,0.1c-0.1,0-0.2,0-0.3,0
		c-0.1,0-0.2,0-0.3,0c-0.1,0-0.2,0-0.3,0c-0.1,0-0.3,0-0.4,0c0,0-0.1,0,0,0h0l-0.1,0c-0.1,0-0.1,0-0.2,0c-0.1,0-0.2,0-0.4,0
		c-0.9-0.1-1.9-0.4-2.8-0.8c-0.9-0.4-1.8-1-2.6-1.7c-0.8-0.7-1.5-1.6-2-2.5c-0.5-1-0.9-2-1.1-3.2c-0.1-0.6-0.1-1.1-0.1-1.7
		c0-0.2,0-0.3,0-0.5c0,0,0,0,0,0v-0.1l0-0.1c0-0.1,0-0.2,0-0.2c0-0.3,0.1-0.6,0.1-0.9c0.4-2.5,1.7-4.9,3.6-6.7
		c0.5-0.5,1-0.9,1.5-1.2c0.6-0.4,1.1-0.7,1.7-1c0.6-0.3,1.2-0.5,1.9-0.7c0.7-0.2,1.3-0.3,2-0.4c0.3,0,0.7,0,1,0c0.1,0,0.2,0,0.2,0
		l0.3,0l0.2,0c0.1,0,0,0,0,0h0.1l0.3,0c0.7,0.1,1.5,0.2,2.2,0.3c1.4,0.3,2.8,0.8,4.2,1.6c2.6,1.5,4.8,3.7,6.2,6.4
		c0.7,1.4,1.2,2.8,1.4,4.3c0.1,0.4,0.1,0.8,0.1,1.1l0,0.3l0,0.3c0,0.1,0,0.2,0,0.3c0,0.1,0,0.2,0,0.3v0.2l0,0.3c0,0.2,0,0.5,0,0.7
		c0,0.4-0.1,0.8-0.1,1.2c0,0.4-0.1,0.8-0.2,1.2c-0.1,0.4-0.2,0.8-0.3,1.2c-0.2,0.8-0.5,1.6-0.8,2.4c-0.6,1.5-1.4,3-2.4,4.4
		c-2,2.7-4.7,4.9-7.7,6.3c-1.5,0.7-3.2,1.2-4.8,1.5c-0.8,0.1-1.7,0.2-2.5,0.2l-0.2,0H731h-0.3h-0.4h-0.2c0.1,0,0,0,0,0H730
		c-0.5,0-0.9,0-1.3-0.1c-1.8-0.1-3.6-0.5-5.3-1c-1.7-0.5-3.4-1.2-5-2c-3.2-1.7-6-4-8.2-6.8c-1.1-1.4-2.1-2.9-2.9-4.5
		s-1.4-3.2-1.9-4.9c-0.5-1.7-0.8-3.4-0.9-5.2l0-0.3l0-0.1v-0.1v-0.1l0-0.3v-0.1v-0.1V661l0-0.4v-0.1c0,0,0,0,0,0v-0.2
		c0-0.2,0-0.4,0-0.6c0-0.9,0.1-1.7,0.2-2.6c0.1-0.9,0.3-1.8,0.4-2.6s0.4-1.8,0.6-2.6c0.5-1.7,1.1-3.4,1.8-4.9
		c1.5-3.1,3.3-5.9,5.6-8.1c0.6-0.6,1.2-1.1,1.8-1.6c0.6-0.5,1.2-1,1.9-1.4c0.7-0.4,1.3-0.8,2-1.2c0.3-0.2,0.7-0.3,1-0.5
		c0.2-0.1,0.4-0.2,0.5-0.2c0.2-0.1,0.4-0.2,0.5-0.2c0.7-0.3,1.5-0.6,2.2-0.8c0.2-0.1,0.4-0.1,0.6-0.2s0.4-0.1,0.6-0.2
		c0.4-0.1,0.8-0.2,1.2-0.3c0.2-0.1,0.4-0.1,0.6-0.1c0.2,0,0.4-0.1,0.6-0.1c0.2,0,0.4-0.1,0.6-0.1l0.3,0l0.3,0c0.2,0,0.4-0.1,0.6-0.1
		c0.2,0,0.4,0,0.7-0.1c0.2,0,0.5-0.1,0.7-0.1c0.1,0,0.3,0,0.4,0l0.3,0l0.1,0l0.2,0c0.2,0,0.4,0,0.7,0l0.3,0c0,0,0.1,0,0,0h0.1l0.1,0
		c0.2,0,0.4,0,0.6,0c0.8,0,1.5,0,2.2,0c1.5,0.1,3,0.2,4.4,0.5c2.8,0.5,5.5,1.4,7.9,2.6c2.4,1.2,4.6,2.6,6.5,4.2
		c0.1,0.1,0.2,0.2,0.3,0.3c0.1,0.1,0.2,0.2,0.3,0.3c0.2,0.2,0.4,0.4,0.7,0.6c0.2,0.2,0.4,0.4,0.6,0.6c0.2,0.2,0.4,0.4,0.6,0.6
		c0.8,0.8,1.5,1.7,2.2,2.6c1.3,1.7,2.4,3.5,3.3,5.1c0.1,0.1,0.1,0.2,0.2,0.3c0,0.1,0.1,0.2,0.2,0.3c0.1,0.2,0.2,0.4,0.3,0.6
		s0.2,0.4,0.3,0.6c0.1,0.2,0.2,0.4,0.2,0.6c0.3,0.8,0.6,1.5,0.8,2.2c0.4,1.1,0.7,2.1,0.9,3c0.1,0.3,0.4,0.6,0.8,0.5
		c0.4,0,0.7-0.3,0.7-0.7C766.1,655.1,766.1,654,765.9,652.8z"/>
	<path class="st10" d="M1103.9,667c0,0.9-0.7,1.6-1.6,1.6h-8.1c-0.9,0-1.6-0.7-1.6-1.6v-2.6c0-0.9,0.7-1.6,1.6-1.6h8.1
		c0.9,0,1.6,0.7,1.6,1.6V667z"/>
	<path class="st10" d="M1162.7,659.9c0,0.9-0.7,1.6-1.6,1.6h-8.1c-0.9,0-1.6-0.7-1.6-1.6v-2.6c0-0.9,0.7-1.6,1.6-1.6h8.1
		c0.9,0,1.6,0.7,1.6,1.6V659.9z"/>
	<path class="st11" d="M1091.5,690.7c0,0.9-0.7,1.6-1.6,1.6h-8.1c-0.9,0-1.6-0.7-1.6-1.6V688c0-0.9,0.7-1.6,1.6-1.6h8.1
		c0.9,0,1.6,0.7,1.6,1.6V690.7z"/>
	<path class="st11" d="M1081.5,640.8c0,0.9-0.7,1.6-1.6,1.6h-8.1c-0.9,0-1.6-0.7-1.6-1.6v-2.6c0-0.9,0.7-1.6,1.6-1.6h8.1
		c0.9,0,1.6,0.7,1.6,1.6C1081.5,638.2,1081.5,640.8,1081.5,640.8z"/>
	<path class="st10" d="M1174.3,652.9h-2.9c-0.9,0-1.6-0.7-1.6-1.6v-2.6c0-0.9,0.7-1.6,1.6-1.6h1.9
		C1173.7,649,1174.1,650.9,1174.3,652.9z"/>
	<path class="st12" d="M1164.4,688.8c-1.5,1.9-3,3.8-4.6,5.4h-4.5c-0.9,0-1.6-0.7-1.6-1.6v-2.6c0-0.9,0.7-1.6,1.6-1.6h8.1
		C1163.7,688.3,1164.1,688.5,1164.4,688.8z"/>
	<path class="st13" d="M1112.4,635c0,0.9-0.7,1.6-1.6,1.6h-8.1c-0.9,0-1.6-0.7-1.6-1.6v-2.6c0-0.9,0.7-1.6,1.6-1.6h8.1
		c0.9,0,1.6,0.7,1.6,1.6V635z"/>
	<path class="st11" d="M1098,674.4c0,0.9-0.7,1.6-1.6,1.6h-8.1c-0.9,0-1.6-0.7-1.6-1.6v-2.6c0-0.9,0.7-1.6,1.6-1.6h8.1
		c0.9,0,1.6,0.7,1.6,1.6V674.4z"/>
	<path class="st13" d="M1168.2,656c0,0.9-0.7,1.6-1.6,1.6h-8c-0.9,0-1.6-0.7-1.6-1.6v-2.6c0-0.9,0.7-1.6,1.6-1.6h8.1
		c0.9,0,1.6,0.7,1.6,1.6L1168.2,656L1168.2,656z"/>
	<path class="st13" d="M1164.3,684.9c0,0.9-0.7,1.6-1.6,1.6h-8c-0.9,0-1.6-0.7-1.6-1.6v-2.6c0-0.9,0.7-1.6,1.6-1.6h8.1
		c0.9,0,1.6,0.7,1.6,1.6v2.6H1164.3z"/>
	<path class="st11" d="M1103.4,625.1c0,0.9-0.7,1.6-1.6,1.6h-8.1c-0.9,0-1.6-0.7-1.6-1.6v-2.5c0-0.9,0.7-1.6,1.6-1.6h8.1
		c0.9,0,1.6,0.7,1.6,1.6V625.1z"/>
	<path class="st13" d="M1163.1,626h-6.8c-0.9,0-1.6-0.7-1.6-1.6v-2.6c0-0.9,0.7-1.6,1.6-1.6h1.3
		C1159.5,621.9,1161.4,623.9,1163.1,626z"/>
	<path class="st12" d="M1098.3,643.7c0,0.9-0.7,1.6-1.6,1.6h-8.1c-0.9,0-1.6-0.7-1.6-1.6v-2.6c0-0.9,0.7-1.6,1.6-1.6h8.1
		c0.9,0,1.6,0.7,1.6,1.6V643.7z"/>
	<path class="st12" d="M1104.7,682.8c0,0.9-0.7,1.6-1.6,1.6h-8.1c-0.9,0-1.6-0.7-1.6-1.6v-2.6c0-0.9,0.7-1.6,1.6-1.6h8.1
		c0.9,0,1.6,0.7,1.6,1.6V682.8z"/>
	<path class="st11" d="M1129,690.2c0,0.9-0.7,1.6-1.6,1.6h-8.1c-0.9,0-1.6-0.7-1.6-1.6v-2.6c0-0.9,0.7-1.6,1.6-1.6h8.1
		c0.9,0,1.6,0.7,1.6,1.6V690.2z"/>
	<path class="st12" d="M1112.5,617c0,0.9-0.7,1.6-1.6,1.6h-8.1c-0.9,0-1.6-0.7-1.6-1.6v-2.6c0-0.9,0.7-1.6,1.6-1.6h8.1
		c0.9,0,1.6,0.7,1.6,1.6V617z"/>
	<path class="st12" d="M1143.5,695.4c0,0.9-0.7,1.6-1.6,1.6h-8.1c-0.9,0-1.6-0.7-1.6-1.6v-2.6c0-0.9,0.7-1.6,1.6-1.6h8.1
		c0.9,0,1.6,0.7,1.6,1.6V695.4z"/>
	<path class="st11" d="M1115.1,645.4c0,0.9-0.7,1.6-1.6,1.6h-8.1c-0.9,0-1.6-0.7-1.6-1.6v-2.6c0-0.9,0.7-1.6,1.6-1.6h8.1
		c0.9,0,1.6,0.7,1.6,1.6V645.4z"/>
	<path class="st11" d="M1156.7,649.3c0,0.9-0.7,1.6-1.6,1.6h-8.1c-0.9,0-1.6-0.7-1.6-1.6v-2.6c0-0.9,0.7-1.6,1.6-1.6h8.1
		c0.9,0,1.6,0.7,1.6,1.6V649.3z"/>
	<path class="st10" d="M1091,658.5c0,0.9-0.7,1.6-1.6,1.6h-8.1c-0.9,0-1.6-0.7-1.6-1.6v-2.6c0-0.9,0.7-1.6,1.6-1.6h8.1
		c0.9,0,1.6,0.7,1.6,1.6V658.5z"/>
	<path class="st11" d="M1169.1,635.1c-0.1,0.1-0.4,0.1-0.6,0.1h-8.1c-0.9,0-1.6-0.7-1.6-1.6V631c0-0.9,0.7-1.6,1.6-1.6h5.4
		C1166.9,631.3,1168,633.2,1169.1,635.1z"/>
	<path class="st11" d="M1154.7,617.8c-0.3,0.4-0.7,0.6-1.3,0.6h-8.1c-0.9,0-1.6-0.7-1.6-1.6v-2.5c0-0.9,0.7-1.6,1.6-1.6h1.2
		C1149.3,614.1,1152.1,615.8,1154.7,617.8z"/>
	<path class="st13" d="M1154.3,638.6c0,0.9-0.7,1.6-1.6,1.6h-8.1c-0.9,0-1.6-0.7-1.6-1.6V636c0-0.9,0.7-1.6,1.6-1.6h8.1
		c0.9,0,1.6,0.7,1.6,1.6V638.6z"/>
	<path class="st13" d="M1149,702.3l-1.2,0.7l-0.3,0.1c-2.5,1.3-4.9,2.5-7.7,3.3h-0.6c-0.9,0-1.6-0.7-1.6-1.6v-2.6
		c0-0.9,0.7-1.6,1.6-1.6h8.1C1148.3,700.7,1149,701.4,1149,702.3z"/>
	<path class="st13" d="M1123.5,623.4c0,0.9-0.7,1.6-1.6,1.6h-8.1c-0.9,0-1.6-0.7-1.6-1.6v-2.5c0-0.9,0.7-1.6,1.6-1.6h8.1
		c0.9,0,1.6,0.7,1.6,1.6V623.4z"/>
	<path class="st10" d="M1112.2,693.6c0,0.9-0.7,1.6-1.6,1.6h-8.1c-0.9,0-1.6-0.7-1.6-1.6v-2.6c0-0.9,0.7-1.6,1.6-1.6h8.1
		c0.9,0,1.6,0.7,1.6,1.6V693.6z"/>
	<path class="st13" d="M1106,654.4c0,0.9-0.7,1.6-1.6,1.6h-8.1c-0.9,0-1.6-0.7-1.6-1.6v-2.6c0-0.9,0.7-1.6,1.6-1.6h8.1
		c0.9,0,1.6,0.7,1.6,1.6V654.4z"/>
	<path class="st10" d="M1146.1,612.5v0.3c0,0.9-0.7,1.6-1.6,1.6h-8.1c-0.9,0-1.6-0.7-1.6-1.6v-2.6c0-0.7,0.4-1.3,1-1.5
		C1139.5,609.6,1142.8,610.9,1146.1,612.5z"/>
	<path class="st13" d="M1173.1,670.4c-0.4,2-1,3.9-1.7,5.8h-0.7c-0.9,0-1.6-0.7-1.6-1.6v-2.6c0-0.9,0.7-1.6,1.6-1.6
		C1170.7,670.4,1173.1,670.4,1173.1,670.4z"/>
	<path class="st11" d="M1129.2,706.2c0,0.9-0.7,1.6-1.6,1.6h-8.1c-0.9,0-1.6-0.7-1.6-1.6v-2.6c0-0.9,0.7-1.6,1.6-1.6h8.1
		c0.9,0,1.6,0.7,1.6,1.6C1129.2,703.6,1129.2,706.2,1129.2,706.2z"/>
	<path class="st11" d="M1129.2,613.2c0,0.9-0.7,1.6-1.6,1.6h-8.1c-0.9,0-1.6-0.7-1.6-1.6v-2.6c0-0.9,0.7-1.6,1.6-1.6h8.1
		c0.9,0,1.6,0.7,1.6,1.6C1129.2,610.6,1129.2,613.2,1129.2,613.2z"/>
	<path class="st12" d="M1120.8,632.5c0,0.9-0.7,1.6-1.6,1.6h-8.1c-0.9,0-1.6-0.7-1.6-1.6v-2.6c0-0.9,0.7-1.6,1.6-1.6h8.1
		c0.9,0,1.6,0.7,1.6,1.6V632.5z"/>
	<path class="st11" d="M1156,697.6c-2.2,1.7-4.5,3.3-6.8,4.8l-1.5,0.9h-0.7c-0.9,0-1.6-0.7-1.6-1.6v-2.6c0-0.9,0.7-1.6,1.6-1.6h8.1
		C1155.4,697.3,1155.7,697.5,1156,697.6z"/>
	<path class="st11" d="M1170.4,678.5c-0.9,2-1.9,3.9-3,5.8h-4.1c-0.9,0-1.6-0.7-1.6-1.6v-2.6c0-0.9,0.7-1.6,1.6-1.6
		C1163.3,678.5,1170.4,678.5,1170.4,678.5z"/>
	<path class="st12" d="M1150.6,627.1c0,0.9-0.7,1.6-1.6,1.6h-8.1c-0.9,0-1.6-0.7-1.6-1.6v-2.6c0-0.9,0.7-1.6,1.6-1.6h8.1
		c0.9,0,1.6,0.7,1.6,1.6V627.1z"/>
	<path class="st12" d="M1172.7,644.4h-6.2c-0.9,0-1.6-0.7-1.6-1.6v-2.6c0-0.9,0.7-1.6,1.6-1.6h4.2
		C1171.4,640.5,1172.1,642.4,1172.7,644.4z"/>
	<path class="st11" d="M1142.4,629.6c0,0.9-0.7,1.6-1.6,1.6h-8.1c-0.9,0-1.6-0.7-1.6-1.6V627c0-0.9,0.7-1.6,1.6-1.6h8.1
		c0.9,0,1.6,0.7,1.6,1.6V629.6z"/>
	<path class="st10" d="M1160.6,641.1c0,0.9-0.7,1.6-1.6,1.6h-8.1c-0.9,0-1.6-0.7-1.6-1.6v-2.6c0-0.9,0.7-1.6,1.6-1.6h8.1
		c0.9,0,1.6,0.7,1.6,1.6V641.1z"/>
	<path class="st12" d="M1165.9,671.1c0,0.9-0.7,1.6-1.6,1.6h-8.1c-0.9,0-1.6-0.7-1.6-1.6v-2.6c0-0.9,0.7-1.6,1.6-1.6h8.1
		c0.9,0,1.6,0.7,1.6,1.6V671.1z"/>
	<path class="st11" d="M1174.4,659.9c0,2-0.3,3.9-0.6,5.8h-6.1c-0.9,0-1.6-0.7-1.6-1.6v-2.6c0-0.9,0.7-1.6,1.6-1.6H1174.4z"/>
	<path class="st10" d="M1138.9,620.7c0,0.9-0.7,1.6-1.6,1.6h-8.1c-0.9,0-1.6-0.7-1.6-1.6v-2.6c0-0.9,0.7-1.6,1.6-1.6h8.1
		c0.9,0,1.6,0.7,1.6,1.6V620.7z"/>
	<path class="st10" d="M1149.3,687.8c0,0.9-0.7,1.6-1.6,1.6h-8.1c-0.9,0-1.6-0.7-1.6-1.6v-2.6c0-0.9,0.7-1.6,1.6-1.6h8.1
		c0.9,0,1.6,0.7,1.6,1.6V687.8z"/>
	<g>
		<path class="st12" d="M1129.5,672.8c0.4,0,0.7-0.1,1-0.4c0.4-0.4,12-12.2,12-24.2c0-7.3-5.8-13.1-13.1-13.1s-13.1,5.8-13.1,13.1
			c0,12,11.6,23.8,12,24.2C1128.7,672.7,1129.2,672.8,1129.5,672.8z M1129.5,638c5.7,0,10.2,4.5,10.2,10.2c0,8.8-7.4,18-10.2,21
			c-2.8-3-10.2-12.2-10.2-21C1119.3,642.5,1124,638,1129.5,638z"/>
		<path class="st10" d="M1135.3,648.2c0-3.2-2.6-5.8-5.8-5.8s-5.8,2.6-5.8,5.8s2.6,5.8,5.8,5.8S1135.3,651.4,1135.3,648.2z
			 M1126.6,648.2c0-1.6,1.3-2.9,2.9-2.9c1.6,0,2.9,1.3,2.9,2.9s-1.3,2.9-2.9,2.9C1127.9,651.1,1126.6,649.8,1126.6,648.2z"/>
		<path class="st11" d="M1149.8,662.4c-0.1-0.7-0.7-1.2-1.5-1.2h-5.8v2.9h4.6l2.5,14.5h-40.2l2.5-14.5h4.6v-2.9h-5.8
			c-0.7,0-1.3,0.6-1.5,1.2l-2.9,17.4c0,0.4,0,0.9,0.3,1.2c0.3,0.3,0.7,0.6,1.2,0.6h43.5c0.4,0,0.9-0.1,1.2-0.6
			c0.3-0.3,0.4-0.7,0.3-1.2L1149.8,662.4z"/>
		<rect x="1120.8" y="672.8" class="st13" width="2.9" height="2.9"/>
		<rect x="1113.5" y="672.8" class="st13" width="2.9" height="2.9"/>
		<rect x="1133.8" y="672.8" class="st13" width="2.9" height="2.9"/>
		<rect x="1141.1" y="672.8" class="st13" width="2.9" height="2.9"/>
		<rect x="1139.6" y="667" class="st13" width="2.9" height="2.9"/>
		<rect x="1115" y="667" class="st13" width="2.9" height="2.9"/>
	</g>
</g>
</svg>
