<?xml version="1.0" encoding="utf-8"?>
<!-- Generator: Adobe Illustrator 24.1.3, SVG Export Plug-In . SVG Version: 6.00 Build 0)  -->
<svg version="1.1" id="Layer_1" xmlns="http://www.w3.org/2000/svg" xmlns:xlink="http://www.w3.org/1999/xlink" x="0px" y="0px"
	 width="81.9px" height="71.5px" viewBox="0 0 81.9 71.5" style="enable-background:new 0 0 81.9 71.5;" xml:space="preserve">
<style type="text/css">
	.st0{fill:#6EC6D3;}
	.st1{display:none;}
	.st2{display:inline;fill:#84AFF1;}
	.st3{display:inline;fill:#3865AB;}
	.st4{display:inline;fill:url(#SVGID_1_);}
	.st5{fill:#D91E34;}
	.st6{fill:#00927F;}
	.st7{fill:#B3C635;}
</style>
<path class="st0" d="M28.3,41.8c0,0.6-0.5,1.1-1.1,1.1h-5.6c-0.6,0-1.1-0.5-1.1-1.1V40c0-0.6,0.5-1.1,1.1-1.1h5.6
	c0.6,0,1.1,0.5,1.1,1.1V41.8z"/>
<path class="st0" d="M68.8,36.9c0,0.6-0.5,1.1-1.1,1.1h-5.6c-0.6,0-1.1-0.5-1.1-1.1v-1.8c0-0.6,0.5-1.1,1.1-1.1h5.6
	c0.6,0,1.1,0.5,1.1,1.1V36.9z"/>
<g id="Layer_2_1_">
	<g id="Layer_1-2" class="st1">
		<path class="st2" d="M55.5,62.4c-1.1,0-2-0.9-2-2c0-0.5,0.2-1,0.6-1.4l4.7-4.5c0.6-0.6,1.5-0.7,2.2-0.4l3.6,1.6l3.7-3.6
			c0.7-0.8,2-0.9,2.8-0.1c0.8,0.7,0.9,2,0.1,2.8l-0.1,0.1l-4.6,4.6c-0.6,0.6-1.5,0.7-2.2,0.4l-3.7-1.7l-3.8,3.6
			C56.5,62.2,56,62.4,55.5,62.4z"/>
		<path class="st3" d="M37,0H2C0.9,0,0,0.9,0,2v29.8c0,1.1,0.9,2,2,2l0,0h35c1.1,0,2-0.9,2-2V2C39,0.9,38.1,0,37,0z M4,29.8v-21h31
			v20.9L4,29.8L4,29.8z"/>
		
			<linearGradient id="SVGID_1_" gradientUnits="userSpaceOnUse" x1="42.95" y1="710.9" x2="81.9" y2="710.9" gradientTransform="matrix(1 0 0 1 0 -694)">
			<stop  offset="0" style="stop-color:#F2CC0C"/>
			<stop  offset="1" style="stop-color:#FF9830"/>
		</linearGradient>
		<path class="st4" d="M79.9,0H45c-1.1,0-2,0.9-2,2v29.8c0,1.1,0.9,2,2,2l0,0h35c1.1,0,2-0.9,2-2V2C82,0.9,81.1,0,79.9,0L79.9,0z
			 M47,29.8v-21h31v20.9L47,29.8L47,29.8z"/>
		<path class="st3" d="M37,37.8H2c-1.1,0-2,0.9-2,2v29.8c0,1.1,0.9,2,2,2h35c1.1,0,2-0.9,2-2V39.8C39,38.7,38.1,37.8,37,37.8z
			 M4,67.5V46.6h31v20.9H4z"/>
		<path class="st3" d="M79.9,37.8H45c-1.1,0-2,0.9-2,2v29.8c0,1.1,0.9,2,2,2h35c1.1,0,2-0.9,2-2V39.8C82,38.7,81.1,37.8,79.9,37.8
			L79.9,37.8z M47,67.5V46.6h31v20.9H47z"/>
		<rect x="10.5" y="57" class="st2" width="4" height="5.8"/>
		<rect x="17.4" y="54" class="st2" width="4" height="8.8"/>
		<rect x="24.5" y="51" class="st2" width="4" height="11.8"/>
		<path class="st2" d="M19.5,25.8c-3.8,0-6.9-3.1-6.9-6.9s3.1-6.9,6.9-6.9s6.9,3.1,6.9,6.9l0,0C26.4,22.7,23.3,25.8,19.5,25.8z
			 M19.5,15.9c-1.6,0-2.9,1.3-2.9,2.9s1.3,2.9,2.9,2.9s2.9-1.3,2.9-2.9C22.4,17.3,21.1,16,19.5,15.9L19.5,15.9z"/>
	</g>
</g>
<path class="st5" d="M19.7,58.1c0,0.6-0.5,1.1-1.1,1.1H13c-0.6,0-1.1-0.5-1.1-1.1v-1.8c0-0.6,0.5-1.1,1.1-1.1h5.6
	c0.6,0,1.1,0.5,1.1,1.1C19.7,56.3,19.7,58.1,19.7,58.1z"/>
<path class="st5" d="M12.8,23.7c0,0.6-0.5,1.1-1.1,1.1H6.1c-0.6,0-1.1-0.5-1.1-1.1v-1.8c0-0.6,0.5-1.1,1.1-1.1h5.6
	c0.6,0,1.1,0.5,1.1,1.1C12.8,21.9,12.8,23.7,12.8,23.7z"/>
<path class="st0" d="M76.8,32.1h-2c-0.6,0-1.1-0.5-1.1-1.1v-1.8c0-0.6,0.5-1.1,1.1-1.1h1.3C76.4,29.4,76.7,30.7,76.8,32.1z"/>
<path class="st6" d="M70,56.8c-1,1.3-2.1,2.6-3.2,3.7h-3.1c-0.6,0-1.1-0.5-1.1-1.1v-1.8c0-0.6,0.5-1.1,1.1-1.1h5.6
	C69.5,56.5,69.8,56.6,70,56.8z"/>
<path class="st7" d="M34.1,19.7c0,0.6-0.5,1.1-1.1,1.1h-5.6c-0.6,0-1.1-0.5-1.1-1.1v-1.8c0-0.6,0.5-1.1,1.1-1.1H33
	c0.6,0,1.1,0.5,1.1,1.1V19.7z"/>
<path class="st5" d="M24.2,46.9c0,0.6-0.5,1.1-1.1,1.1h-5.6c-0.6,0-1.1-0.5-1.1-1.1v-1.8c0-0.6,0.5-1.1,1.1-1.1h5.6
	c0.6,0,1.1,0.5,1.1,1.1V46.9z"/>
<path class="st7" d="M72.6,34.2c0,0.6-0.5,1.1-1.1,1.1H66c-0.6,0-1.1-0.5-1.1-1.1v-1.8c0-0.6,0.5-1.1,1.1-1.1h5.6
	c0.6,0,1.1,0.5,1.1,1.1L72.6,34.2L72.6,34.2z"/>
<path class="st7" d="M69.9,54.1c0,0.6-0.5,1.1-1.1,1.1h-5.5c-0.6,0-1.1-0.5-1.1-1.1v-1.8c0-0.6,0.5-1.1,1.1-1.1h5.6
	c0.6,0,1.1,0.5,1.1,1.1v1.8H69.9z"/>
<path class="st5" d="M27.9,12.9c0,0.6-0.5,1.1-1.1,1.1h-5.6c-0.6,0-1.1-0.5-1.1-1.1v-1.7c0-0.6,0.5-1.1,1.1-1.1h5.6
	c0.6,0,1.1,0.5,1.1,1.1V12.9z"/>
<path class="st7" d="M69.1,13.5h-4.7c-0.6,0-1.1-0.5-1.1-1.1v-1.8c0-0.6,0.5-1.1,1.1-1.1h0.9C66.6,10.7,67.9,12.1,69.1,13.5z"/>
<path class="st6" d="M24.4,25.7c0,0.6-0.5,1.1-1.1,1.1h-5.6c-0.6,0-1.1-0.5-1.1-1.1v-1.8c0-0.6,0.5-1.1,1.1-1.1h5.6
	c0.6,0,1.1,0.5,1.1,1.1V25.7z"/>
<path class="st6" d="M28.8,52.7c0,0.6-0.5,1.1-1.1,1.1h-5.6c-0.6,0-1.1-0.5-1.1-1.1v-1.8c0-0.6,0.5-1.1,1.1-1.1h5.6
	c0.6,0,1.1,0.5,1.1,1.1V52.7z"/>
<path class="st5" d="M45.6,57.8c0,0.6-0.5,1.1-1.1,1.1h-5.6c-0.6,0-1.1-0.5-1.1-1.1V56c0-0.6,0.5-1.1,1.1-1.1h5.6
	c0.6,0,1.1,0.5,1.1,1.1V57.8z"/>
<path class="st6" d="M34.2,7.3c0,0.6-0.5,1.1-1.1,1.1h-5.6c-0.6,0-1.1-0.5-1.1-1.1V5.5c0-0.6,0.5-1.1,1.1-1.1h5.6
	c0.6,0,1.1,0.5,1.1,1.1V7.3z"/>
<path class="st6" d="M55.6,61.4c0,0.6-0.5,1.1-1.1,1.1h-5.6c-0.6,0-1.1-0.5-1.1-1.1v-1.8c0-0.6,0.5-1.1,1.1-1.1h5.6
	c0.6,0,1.1,0.5,1.1,1.1V61.4z"/>
<path class="st5" d="M36,26.9c0,0.6-0.5,1.1-1.1,1.1h-5.6c-0.6,0-1.1-0.5-1.1-1.1v-1.8c0-0.6,0.5-1.1,1.1-1.1h5.6
	c0.6,0,1.1,0.5,1.1,1.1V26.9z"/>
<path class="st5" d="M64.7,29.6c0,0.6-0.5,1.1-1.1,1.1H58c-0.6,0-1.1-0.5-1.1-1.1v-1.8c0-0.6,0.5-1.1,1.1-1.1h5.6
	c0.6,0,1.1,0.5,1.1,1.1V29.6z"/>
<path class="st0" d="M19.4,35.9c0,0.6-0.5,1.1-1.1,1.1h-5.6c-0.6,0-1.1-0.5-1.1-1.1v-1.8c0-0.6,0.5-1.1,1.1-1.1h5.6
	c0.6,0,1.1,0.5,1.1,1.1V35.9z"/>
<path class="st5" d="M73.2,19.8c-0.1,0.1-0.3,0.1-0.4,0.1h-5.6c-0.6,0-1.1-0.5-1.1-1.1V17c0-0.6,0.5-1.1,1.1-1.1h3.7
	C71.7,17.2,72.5,18.5,73.2,19.8z"/>
<path class="st5" d="M63.3,7.9c-0.2,0.3-0.5,0.4-0.9,0.4h-5.6c-0.6,0-1.1-0.5-1.1-1.1V5.5c0-0.6,0.5-1.1,1.1-1.1h0.8
	C59.6,5.3,61.5,6.5,63.3,7.9z"/>
<path class="st7" d="M63,22.2c0,0.6-0.5,1.1-1.1,1.1h-5.6c-0.6,0-1.1-0.5-1.1-1.1v-1.8c0-0.6,0.5-1.1,1.1-1.1h5.6
	c0.6,0,1.1,0.5,1.1,1.1V22.2z"/>
<path class="st7" d="M59.4,66.1l-0.8,0.5l-0.2,0.1c-1.7,0.9-3.4,1.7-5.3,2.3h-0.4c-0.6,0-1.1-0.5-1.1-1.1v-1.8
	c0-0.6,0.5-1.1,1.1-1.1h5.6C58.9,65,59.4,65.5,59.4,66.1z"/>
<path class="st7" d="M41.8,11.7c0,0.6-0.5,1.1-1.1,1.1h-5.6c-0.6,0-1.1-0.5-1.1-1.1V10c0-0.6,0.5-1.1,1.1-1.1h5.6
	c0.6,0,1.1,0.5,1.1,1.1V11.7z"/>
<path class="st0" d="M34,60.1c0,0.6-0.5,1.1-1.1,1.1h-5.6c-0.6,0-1.1-0.5-1.1-1.1v-1.8c0-0.6,0.5-1.1,1.1-1.1h5.6
	c0.6,0,1.1,0.5,1.1,1.1V60.1z"/>
<path class="st7" d="M29.7,33.1c0,0.6-0.5,1.1-1.1,1.1H23c-0.6,0-1.1-0.5-1.1-1.1v-1.8c0-0.6,0.5-1.1,1.1-1.1h5.6
	c0.6,0,1.1,0.5,1.1,1.1V33.1z"/>
<path class="st0" d="M57.4,4.2v0.2c0,0.6-0.5,1.1-1.1,1.1h-5.6c-0.6,0-1.1-0.5-1.1-1.1V2.6c0-0.5,0.3-0.9,0.7-1
	C52.8,2.2,55.1,3.1,57.4,4.2z"/>
<path class="st7" d="M76,44.1c-0.3,1.4-0.7,2.7-1.2,4h-0.5c-0.6,0-1.1-0.5-1.1-1.1v-1.8c0-0.6,0.5-1.1,1.1-1.1
	C74.3,44.1,76,44.1,76,44.1z"/>
<path class="st5" d="M45.7,68.8c0,0.6-0.5,1.1-1.1,1.1H39c-0.6,0-1.1-0.5-1.1-1.1V67c0-0.6,0.5-1.1,1.1-1.1h5.6
	c0.6,0,1.1,0.5,1.1,1.1C45.7,67,45.7,68.8,45.7,68.8z"/>
<path class="st5" d="M45.7,4.7c0,0.6-0.5,1.1-1.1,1.1H39c-0.6,0-1.1-0.5-1.1-1.1V2.9c0-0.6,0.5-1.1,1.1-1.1h5.6
	c0.6,0,1.1,0.5,1.1,1.1C45.7,2.9,45.7,4.7,45.7,4.7z"/>
<path class="st6" d="M39.9,18c0,0.6-0.5,1.1-1.1,1.1h-5.6c-0.6,0-1.1-0.5-1.1-1.1v-1.8c0-0.6,0.5-1.1,1.1-1.1h5.6
	c0.6,0,1.1,0.5,1.1,1.1V18z"/>
<path class="st5" d="M64.2,62.9c-1.5,1.2-3.1,2.3-4.7,3.3l-1,0.6H58c-0.6,0-1.1-0.5-1.1-1.1v-1.8c0-0.6,0.5-1.1,1.1-1.1h5.6
	C63.8,62.7,64,62.8,64.2,62.9z"/>
<path class="st5" d="M74.1,49.7c-0.6,1.4-1.3,2.7-2.1,4h-2.8c-0.6,0-1.1-0.5-1.1-1.1v-1.8c0-0.6,0.5-1.1,1.1-1.1
	C69.2,49.7,74.1,49.7,74.1,49.7z"/>
<path class="st6" d="M60.5,14.3c0,0.6-0.5,1.1-1.1,1.1h-5.6c-0.6,0-1.1-0.5-1.1-1.1v-1.8c0-0.6,0.5-1.1,1.1-1.1h5.6
	c0.6,0,1.1,0.5,1.1,1.1V14.3z"/>
<path class="st6" d="M75.7,26.2h-4.3c-0.6,0-1.1-0.5-1.1-1.1v-1.8c0-0.6,0.5-1.1,1.1-1.1h2.9C74.8,23.5,75.3,24.8,75.7,26.2z"/>
<path class="st5" d="M54.8,16c0,0.6-0.5,1.1-1.1,1.1h-5.6c-0.6,0-1.1-0.5-1.1-1.1v-1.8c0-0.6,0.5-1.1,1.1-1.1h5.6
	c0.6,0,1.1,0.5,1.1,1.1V16z"/>
<path class="st0" d="M67.4,23.9c0,0.6-0.5,1.1-1.1,1.1h-5.6c-0.6,0-1.1-0.5-1.1-1.1v-1.8c0-0.6,0.5-1.1,1.1-1.1h5.6
	c0.6,0,1.1,0.5,1.1,1.1V23.9z"/>
<path class="st6" d="M71,44.6c0,0.6-0.5,1.1-1.1,1.1h-5.6c-0.6,0-1.1-0.5-1.1-1.1v-1.8c0-0.6,0.5-1.1,1.1-1.1h5.6
	c0.6,0,1.1,0.5,1.1,1.1V44.6z"/>
<path class="st5" d="M76.9,36.9c0,1.4-0.2,2.7-0.4,4h-4.2c-0.6,0-1.1-0.5-1.1-1.1V38c0-0.6,0.5-1.1,1.1-1.1
	C72.3,36.9,76.9,36.9,76.9,36.9z"/>
<path class="st0" d="M52.4,9.9c0,0.6-0.5,1.1-1.1,1.1h-5.6c-0.6,0-1.1-0.5-1.1-1.1V8.1c0-0.6,0.5-1.1,1.1-1.1h5.6
	c0.6,0,1.1,0.5,1.1,1.1V9.9z"/>
<path class="st0" d="M59.6,56.1c0,0.6-0.5,1.1-1.1,1.1h-5.6c-0.6,0-1.1-0.5-1.1-1.1v-1.8c0-0.6,0.5-1.1,1.1-1.1h5.6
	c0.6,0,1.1,0.5,1.1,1.1C59.6,54.3,59.6,56.1,59.6,56.1z"/>
<g>
	<path class="st6" d="M45.9,45.8c0.3,0,0.5-0.1,0.7-0.3c0.3-0.3,8.3-8.4,8.3-16.7c0-5-4-9-9-9s-9,4-9,9c0,8.3,8,16.4,8.3,16.7
		C45.4,45.7,45.7,45.8,45.9,45.8z M45.9,21.8c3.9,0,7,3.1,7,7c0,6.1-5.1,12.4-7,14.5c-1.9-2.1-7-8.4-7-14.5
		C38.9,24.9,42.1,21.8,45.9,21.8z"/>
	<path class="st0" d="M49.9,28.8c0-2.2-1.8-4-4-4s-4,1.8-4,4s1.8,4,4,4S49.9,31,49.9,28.8z M43.9,28.8c0-1.1,0.9-2,2-2s2,0.9,2,2
		s-0.9,2-2,2S43.9,29.9,43.9,28.8z"/>
	<path class="st5" d="M59.9,38.6c-0.1-0.5-0.5-0.8-1-0.8h-4v2h3.2l1.7,10H32.1l1.7-10h3.2v-2h-4c-0.5,0-0.9,0.4-1,0.8l-2,12
		c0,0.3,0,0.6,0.2,0.8c0.2,0.2,0.5,0.4,0.8,0.4h30c0.3,0,0.6-0.1,0.8-0.4c0.2-0.2,0.3-0.5,0.2-0.8L59.9,38.6z"/>
	<rect x="39.9" y="45.8" class="st7" width="2" height="2"/>
	<rect x="34.9" y="45.8" class="st7" width="2" height="2"/>
	<rect x="48.9" y="45.8" class="st7" width="2" height="2"/>
	<rect x="53.9" y="45.8" class="st7" width="2" height="2"/>
	<rect x="52.9" y="41.8" class="st7" width="2" height="2"/>
	<rect x="35.9" y="41.8" class="st7" width="2" height="2"/>
</g>
</svg>
